<svg id="b0732f5a-e237-4ccd-9809-cba53c71a6e9" data-name="Layer 1" xmlns="http://www.w3.org/2000/svg" xmlns:xlink="http://www.w3.org/1999/xlink" width="849" height="181.41" viewBox="0 0 849 181.41">
  <defs>
    <linearGradient id="a2a77af5-3b10-4628-8a11-7b49ba3be238" x1="20.79" y1="28.08" x2="176.31" y2="183.6" gradientUnits="userSpaceOnUse">
      <stop offset="0" stop-color="#1661ff"/>
      <stop offset="0.86" stop-color="#0e39ba"/>
    </linearGradient>
  </defs>
  <g>
    <g>
      <path d="M267.69,109.13h16.52q-3.63,13.88-13.87,21.15-10.24,7.6-25.78,7.6-18.83,0-29.4-12.23-10.59-11.9-10.58-34,0-21.15,10.25-33,10.56-12.22,29.4-12.23,19.83,0,30.73,11.9a45.1,45.1,0,0,1,8.59,16.85H260.42a19.45,19.45,0,0,0-3.3-5q-4.31-4.62-12.23-4.62A16.1,16.1,0,0,0,233,70.14q-6,6.61-5.95,21.81T233,113.43q4.29,5.28,12.89,5.28a18.75,18.75,0,0,0,9.58-2.31,4.52,4.52,0,0,0,1.81-1.16l1.82-1.81a14.57,14.57,0,0,1,2.65-2.65Q263.73,109.13,267.69,109.13Z" style="fill: #fff"/>
      <path d="M286.05,136.23V93.6q0-12.88,3.8-21.64a35.7,35.7,0,0,1,10.4-14A40.82,40.82,0,0,1,315,50.65a65.27,65.27,0,0,1,17.34-2.32h3.31V71.79H328q-9.58,0-14.21,4.63T309.18,91v45.27Z" style="fill: #fff"/>
      <path d="M347,128.3a32.72,32.72,0,0,1-9.91-16,73.83,73.83,0,0,1-3-21,66.4,66.4,0,0,1,2.47-17.84,36.81,36.81,0,0,1,7.77-14.87,34.28,34.28,0,0,1,22.14-11.73Q380.07,45,391,49a33.7,33.7,0,0,1,18.5,17.19q5.63,10.91,5.62,25.44a62.87,62.87,0,0,1-2.31,18.17,46.8,46.8,0,0,1-5.95,12.89q-7.93,10.9-20.16,13.55a45,45,0,0,1-22,.49Q353.63,134.25,347,128.3Zm15.86-58.16q-6.93,7.6-6.27,22.64t5.61,21c1.32,1.76,3.64,3.25,6.94,4.46a15.81,15.81,0,0,0,10.08.33q5.11-1.48,9.09-7.44T392.62,92q0-11.9-3.8-17.84t-8.75-7.6a16.09,16.09,0,0,0-9.92-.17A17.22,17.22,0,0,0,362.88,70.14Z" style="fill: #fff"/>
      <path d="M415.12,136.23V118.71l47.25-52.2H429a11.13,11.13,0,0,1-7.94-3.14,10.29,10.29,0,0,1-3.3-7.77V48.33h72V67.17L443.2,117.06h48.25v19.17Z" style="fill: #fff"/>
      <path d="M551.43,22.23h11.24a10.59,10.59,0,0,1,7.93,3.47,11,11,0,0,1,3.3,7.76V97.9q0,23.46-13.55,31.72a55.42,55.42,0,0,1-29.41,8.26,52.07,52.07,0,0,1-16.85-2.81A27.67,27.67,0,0,1,500.88,126q-9.58-12.21-9.59-33.37,0-20.82,9.59-33.37,9.9-12.89,25.44-12.89a30.84,30.84,0,0,1,14.54,3.31A31.41,31.41,0,0,1,551.43,59.9ZM513.76,91.62q0,13.22,5,20.15t14.21,6.94a16.06,16.06,0,0,0,13.87-6.94q4.63-6.93,4.63-20.15,0-11.9-5-18.84a17.25,17.25,0,0,0-14.2-6.6,15.76,15.76,0,0,0-13.55,6.94Q513.75,79.72,513.76,91.62Z" style="fill: #fff"/>
      <path d="M639,109.13h16.52q-3.63,13.88-13.87,21.15-10.25,7.6-25.78,7.6-18.83,0-29.4-12.23-10.59-11.9-10.58-34,0-21.15,10.25-33,10.56-12.22,29.4-12.23,19.83,0,30.73,11.9,10.57,12.23,10.58,34v3.63a5.87,5.87,0,0,1-.33,2.32H599.34q.33,10.24,5,15.2,4.29,5.28,12.89,5.28a18.75,18.75,0,0,0,9.58-2.31,4.52,4.52,0,0,0,1.81-1.16l1.82-1.81a7.22,7.22,0,0,1,2.48-2.65A9.85,9.85,0,0,1,639,109.13ZM599.34,83.36h33.71q-.67-8.92-4.63-13.22-4.3-4.62-12.23-4.62a16.1,16.1,0,0,0-11.89,4.62Q599.67,74.78,599.34,83.36Z" style="fill: #fff"/>
      <path d="M656.69,107.15h22.47q.32,6.61,5,9.91,4.95,3.31,13.22,3.31a21.22,21.22,0,0,0,10.24-2.32c2.64-1.54,4-3.63,4-6.28q0-5.94-13.88-8.92a63,63,0,0,1-8.92-2q-17.52-4.29-23.46-10.24-6.62-6-6.61-15.86A26.32,26.32,0,0,1,668.25,54q9.91-7.59,25.77-7.6,17.19,0,27.43,7.6,9.59,8.27,10.24,21.48H717.48a10.5,10.5,0,0,1-9.58-5.62l-2.64-2.64q-4-3-10.91-3c-4.4,0-7.71.66-9.91,2a6.66,6.66,0,0,0-3,5.94q0,5.3,17.18,8.93a35.67,35.67,0,0,0,3.47,1,13,13,0,0,0,2.81.33q16.85,4.29,23.46,9.91,6.27,5.94,6.28,15.86,0,14.55-10.58,22.47-9.92,7.27-29.74,7.27-18.83,0-28.08-7.6-9.59-7.61-9.58-22.14Z" style="fill: #fff"/>
      <path d="M761.43,48.33V80.72l28.09-32.39h27.75L785.88,82l31.72,54.19H789.85l-16.2-29.74q-4.95-8.92-8.59-7.6t-3.63,4v33.38H738.3V22.56h11.89a10.88,10.88,0,0,1,7.94,3.3,10.47,10.47,0,0,1,3.3,7.6Z" style="fill: #fff"/>
      <g>
        <path d="M822.6,48.07V34h-5.08V32.76a1.79,1.79,0,0,1,1.8-1.79h11.83v3h-5V48.07Z" style="fill: #fff"/>
        <path d="M831.8,48.07V32.76a1.72,1.72,0,0,1,.52-1.27,1.89,1.89,0,0,1,1.27-.57H837L840.4,44l3.38-13.08H849V48.07h-3.28V34.25l-3.48,13.82h-3.63l-3.53-13.82V48.07Z" style="fill: #fff"/>
      </g>
    </g>
    <g>
      <path d="M69.54,3.72,14.94,35.26a27.74,27.74,0,0,0-13.85,24v62.87a27.72,27.72,0,0,0,13.85,24l54.6,31.55a27.72,27.72,0,0,0,27.74,0l54.6-31.55a27.7,27.7,0,0,0,13.86-24V59.27a27.73,27.73,0,0,0-13.86-24L97.28,3.72A27.72,27.72,0,0,0,69.54,3.72Z" style="fill: url(#a2a77af5-3b10-4628-8a11-7b49ba3be238)"/>
      <path d="M78.11,146.36,37.82,123.08a10.6,10.6,0,0,1-5.29-9.17V67.5a10.6,10.6,0,0,1,5.29-9.17L77.34,35.5A4,4,0,0,1,83.41,39V64.5a6.56,6.56,0,0,1-3.27,5.67L67.25,77.61A6.53,6.53,0,0,0,64,83.28V98.12a6.53,6.53,0,0,0,3.27,5.67l12.89,7.45a6.55,6.55,0,0,0,6.55,0l12.89-7.45a6.53,6.53,0,0,1,6.54,0l22.1,12.73a4,4,0,0,1,0,7L88.71,146.36A10.62,10.62,0,0,1,78.11,146.36Z" style="fill: #fff"/>
      <path d="M159.68,42a27.74,27.74,0,0,1,4,14.39v62.87a27.72,27.72,0,0,1-13.85,24l-54.6,31.55a27.72,27.72,0,0,1-27.74,0l-54.6-31.55a27.49,27.49,0,0,1-7.8-6.72,27.61,27.61,0,0,0,9.82,9.62l54.6,31.55a27.72,27.72,0,0,0,27.74,0l54.6-31.55a27.7,27.7,0,0,0,13.86-24V59.27A27.72,27.72,0,0,0,159.68,42Z" style="opacity: 0.21"/>
      <g style="opacity: 0.15">
        <path d="M128.67,116.82a4,4,0,0,1-1.54,5.43L87.62,145.08a10.6,10.6,0,0,1-10.59,0L36.74,121.8a10.57,10.57,0,0,1-2.19-1.67,10.77,10.77,0,0,0,3.27,3l40.29,23.28a10.62,10.62,0,0,0,10.6,0l39.51-22.83A4,4,0,0,0,128.67,116.82Z" style="fill: #669dea"/>
        <path d="M82.32,37.72v25.5a6.53,6.53,0,0,1-3.27,5.67L66.16,76.34A6.56,6.56,0,0,0,62.89,82V96.85A6.56,6.56,0,0,0,65,101.7,6.56,6.56,0,0,1,64,98.12V83.28a6.53,6.53,0,0,1,3.27-5.67l12.89-7.44a6.53,6.53,0,0,0,3.27-5.67V39a4,4,0,0,0-1.57-3.2A3.93,3.93,0,0,1,82.32,37.72Z" style="fill: #669dea"/>
      </g>
      <path d="M79.36,35.88A3.13,3.13,0,0,1,82.48,39V64.5a5.62,5.62,0,0,1-2.8,4.86l-12.9,7.45a7.5,7.5,0,0,0-3.73,6.47V98.12a7.5,7.5,0,0,0,3.73,6.48l12.89,7.45a7.49,7.49,0,0,0,7.48,0l12.9-7.45a5.63,5.63,0,0,1,5.6,0l22.1,12.74a3.11,3.11,0,0,1,0,5.39L88.24,145.55a9.69,9.69,0,0,1-9.66,0L38.29,122.27a9.69,9.69,0,0,1-4.82-8.36V67.5a9.67,9.67,0,0,1,4.82-8.36L77.81,36.3a3.09,3.09,0,0,1,1.55-.42m0-.93a4,4,0,0,0-2,.55L37.83,58.33a10.59,10.59,0,0,0-5.3,9.17v46.41a10.59,10.59,0,0,0,5.3,9.17l40.29,23.28a10.58,10.58,0,0,0,10.59,0l39.51-22.83a4,4,0,0,0,0-7l-22.1-12.73a6.47,6.47,0,0,0-3.27-.88,6.58,6.58,0,0,0-3.27.88l-12.89,7.45a6.53,6.53,0,0,1-6.55,0l-12.89-7.45A6.56,6.56,0,0,1,64,98.12V83.28a6.56,6.56,0,0,1,3.27-5.67l12.89-7.44a6.53,6.53,0,0,0,3.27-5.67V39a4,4,0,0,0-4-4Z" style="opacity: 0.1"/>
      <g style="opacity: 0.5">
        <path d="M80.21,111.24l-12.64-7.3a7,7,0,0,0,.89.61L81.35,112a6.55,6.55,0,0,0,6.55,0l12.89-7.45a6.53,6.53,0,0,1,6.54,0L129,117a3.82,3.82,0,0,0-.71-.52l-22.1-12.73a6.53,6.53,0,0,0-6.54,0l-12.89,7.45A6.55,6.55,0,0,1,80.21,111.24Z" style="fill: #fff"/>
        <path d="M33.67,114.67V68.26A10.59,10.59,0,0,1,39,59.09L78.48,36.26a4,4,0,0,1,3.68-.19,4,4,0,0,0-4.82-.57L37.82,58.33a10.6,10.6,0,0,0-5.29,9.17v46.41a10.61,10.61,0,0,0,5.26,9.15A10.59,10.59,0,0,1,33.67,114.67Z" style="fill: #fff"/>
      </g>
      <path d="M2.11,122.8V59.93A27.73,27.73,0,0,1,16,35.92L70.57,4.38a27.72,27.72,0,0,1,27.74,0l54.6,31.54.62.38c-.54-.37-1.08-.71-1.65-1L97.28,3.72a27.72,27.72,0,0,0-27.74,0L14.94,35.26a27.74,27.74,0,0,0-13.85,24v62.87a27.7,27.7,0,0,0,13.23,23.63A27.71,27.71,0,0,1,2.11,122.8Z" style="fill: #669dea;opacity: 0.5"/>
    </g>
    <g>
      <g>
        <path d="M273.52,56.81a45.34,45.34,0,0,1,8.6,16.85H259.66c.25.45.51.93.76,1.44h23.13A45.1,45.1,0,0,0,275,58.25c-.57-.63-1.17-1.23-1.78-1.81C273.29,56.56,273.41,56.68,273.52,56.81Z"/>
        <path d="M233.27,113.74l-.27-.31q-6-6.27-5.95-21.48T233,70.14a16.1,16.1,0,0,1,11.89-4.62q7.06,0,11.24,3.67c-.15-.17-.3-.34-.45-.49q-4.31-4.62-12.23-4.62a16.1,16.1,0,0,0-11.89,4.62q-5.94,6.61-5.95,21.81T231.56,112A13.47,13.47,0,0,0,233.27,113.74Z"/>
        <path d="M282.37,109.13Q278.61,122,268.9,128.84q-10.25,7.6-25.77,7.6-16.73,0-26.92-9.63,10.44,11.07,28.35,11.07,15.52,0,25.78-7.6,10.23-7.26,13.87-21.15Z"/>
      </g>
      <path d="M334.17,48.33v22h-7.6q-9.58,0-14.21,4.62t-4.62,14.54v45.27H286.05v1.44h23.13V91q0-9.92,4.62-14.54T328,71.79h7.6V48.33Z"/>
      <g>
        <path d="M360.78,112.32a9.56,9.56,0,0,0,1.58,1.61l-.14-.17q-5-6-5.61-21t6.27-22.64a17.22,17.22,0,0,1,7.27-3.8,16.09,16.09,0,0,1,9.92.17,13.94,13.94,0,0,1,4.87,2.91,14.77,14.77,0,0,0-6.31-4.35,16.09,16.09,0,0,0-9.92-.17,17.22,17.22,0,0,0-7.27,3.8q-6.93,7.6-6.27,22.64T360.78,112.32Z"/>
        <path d="M409.47,66.18A34.77,34.77,0,0,0,402,55.9a35.45,35.45,0,0,1,6,8.84q5.63,10.91,5.62,25.44a62.87,62.87,0,0,1-2.31,18.17,46.51,46.51,0,0,1-5.95,12.89q-7.93,10.9-20.16,13.55a45,45,0,0,1-22,.49q-11.07-2.47-17.68-8.42l-.88-.79A30.54,30.54,0,0,0,347,128.3q6.62,5.94,17.68,8.42a45,45,0,0,0,22-.49q12.22-2.65,20.16-13.55a46.8,46.8,0,0,0,5.95-12.89,62.87,62.87,0,0,0,2.31-18.17Q415.09,77.09,409.47,66.18Z"/>
      </g>
      <g>
        <path d="M427.56,65.07a11.07,11.07,0,0,1-7.39-2.66,11.37,11.37,0,0,0,.89,1A11.13,11.13,0,0,0,429,66.51h30.63l1.3-1.44Z"/>
        <polygon points="488.36 65.73 441.76 115.62 444.55 115.62 489.79 67.17 489.79 48.33 488.36 48.33 488.36 65.73"/>
        <polygon points="490.01 117.06 490.01 134.79 415.12 134.79 415.12 136.23 491.45 136.23 491.45 117.06 490.01 117.06"/>
      </g>
      <g>
        <path d="M519.9,113.26a17.56,17.56,0,0,1-1.18-1.49q-5-6.93-5-20.15,0-11.9,5-18.5a15.76,15.76,0,0,1,13.55-6.94,17.43,17.43,0,0,1,12.05,4.32,17.26,17.26,0,0,0-13.49-5.76,15.76,15.76,0,0,0-13.55,6.94q-4.95,6.61-5,18.5,0,13.21,5,20.16A17.58,17.58,0,0,0,519.9,113.26Z"/>
        <path d="M570.6,25.7a11.66,11.66,0,0,0-1-.91A10.82,10.82,0,0,1,572.46,32V96.46q0,23.46-13.55,31.72a55.41,55.41,0,0,1-29.4,8.26,52.13,52.13,0,0,1-16.86-2.81,28.69,28.69,0,0,1-10.42-6.06,28.1,28.1,0,0,0,11.86,7.5,52.07,52.07,0,0,0,16.85,2.81,55.42,55.42,0,0,0,29.41-8.26q13.54-8.27,13.55-31.72V33.46A11,11,0,0,0,570.6,25.7Z"/>
        <path d="M550,58.46v-.64a29.94,29.94,0,0,0-3.57-4A30.92,30.92,0,0,1,550,58.46Z"/>
      </g>
      <g>
        <path d="M646.26,58.25c-.57-.63-1.17-1.23-1.79-1.81.12.12.24.24.35.37Q655.4,69,655.4,90.84v3.64a5.84,5.84,0,0,1-.33,2.31H597.9q.33,10.24,5,15.2a13.47,13.47,0,0,0,1.71,1.75l-.27-.31q-4.63-5-5-15.2h57.17a5.87,5.87,0,0,0,.33-2.32V92.28Q656.84,70.47,646.26,58.25Z"/>
        <path d="M604.3,70.14a16.1,16.1,0,0,1,11.89-4.62q6.94,0,11.1,3.54L627,68.7q-4.29-4.62-12.22-4.62a16.11,16.11,0,0,0-11.9,4.62q-4.64,4.64-5,13.22h1.53Q600.08,74.38,604.3,70.14Z"/>
        <path d="M640.2,128.84q-10.25,7.6-25.78,7.6-16.71,0-26.91-9.63,10.44,11.07,28.35,11.07,15.52,0,25.78-7.6,10.23-7.26,13.87-21.15h-1.84Q649.91,122,640.2,128.84Z"/>
      </g>
      <g>
        <path d="M730.25,74h-14.2a10.42,10.42,0,0,1-6.85-2.32,10.25,10.25,0,0,0,8.28,3.76h14.21a29.1,29.1,0,0,0-9.24-20.58A29.18,29.18,0,0,1,730.25,74Z"/>
        <path d="M696.22,101.42a64.15,64.15,0,0,1-8.92-2q-17.52-4.29-23.46-10.24l-.07-.06a19.44,19.44,0,0,0,1.51,1.5q5.94,5.94,23.46,10.24a63,63,0,0,0,8.92,2q8,1.71,11.36,4.4Q706.23,103.56,696.22,101.42Z"/>
        <path d="M728.39,92.28l-.24-.19q5.07,5.7,5.08,14.61,0,14.55-10.58,22.47-9.9,7.28-29.73,7.27-18.84,0-28.09-7.6-.75-.6-1.44-1.23a25.29,25.29,0,0,0,2.88,2.67q9.24,7.6,28.08,7.6,19.83,0,29.74-7.27,10.57-7.94,10.58-22.47Q734.67,98.23,728.39,92.28Z"/>
        <path d="M703.82,65.73q-4-3-10.9-3c-4.41,0-7.72.67-9.92,2a6.66,6.66,0,0,0-3,5.94,4.64,4.64,0,0,0,2.17,3.56,3.67,3.67,0,0,1-.73-2.12,6.66,6.66,0,0,1,3-5.94c2.2-1.33,5.51-2,9.91-2q6.95,0,10.91,3Z"/>
        <path d="M681.94,115.05a13,13,0,0,1-2.78-7.9h-1.31A11.82,11.82,0,0,0,681.94,115.05Z"/>
      </g>
      <g>
        <path d="M760,32V79.28l1.44-1.66V33.46a10.47,10.47,0,0,0-3.3-7.6c-.24-.23-.49-.46-.74-.67A10.24,10.24,0,0,1,760,32Z"/>
        <polygon points="785.88 82.04 817.27 48.33 814.49 48.33 784.44 80.6 816.16 134.79 789.06 134.79 789.85 136.23 817.6 136.23 785.88 82.04"/>
        <path d="M763.63,97.45q-3.64,1.32-3.64,4v33.37H738.3v1.44h23.13V102.85q0-2.64,3.63-4,1.73-.63,3.74,1C766.9,97.72,765.17,96.89,763.63,97.45Z"/>
      </g>
      <g>
        <path d="M821.16,32.56h-3.63c0,.07,0,.13,0,.2V34h3.64Z"/>
        <polygon points="829.71 30.97 829.71 32.56 824.69 32.56 824.69 46.63 822.6 46.63 822.6 48.07 826.13 48.07 826.13 34 831.15 34 831.15 30.97 829.71 30.97"/>
      </g>
      <g>
        <polygon points="833.64 32.81 833.64 46.63 831.79 46.63 831.79 48.07 835.08 48.07 835.08 38.45 833.64 32.81"/>
        <polygon points="838.96 42.56 839.49 40.49 837.02 30.92 835.95 30.92 838.96 42.56"/>
        <polygon points="844.28 32.81 840.8 46.63 838.24 46.63 838.61 48.07 842.24 48.07 844.28 39.96 844.28 32.81"/>
        <polygon points="847.56 30.92 847.56 46.63 845.72 46.63 845.72 48.07 849 48.07 849 30.92 847.56 30.92"/>
      </g>
    </g>
    <g style="opacity: 0.15">
      <g>
        <path d="M267.69,109.21q-4,0-5.94,1.65a14.28,14.28,0,0,0-2.65,2.64l-1.82,1.82a4.63,4.63,0,0,1-1.81,1.16,18.75,18.75,0,0,1-9.58,2.31q-7.29,0-11.48-3.81,4.28,4.76,12.42,4.76a18.63,18.63,0,0,0,9.58-2.32,4.52,4.52,0,0,0,1.82-1.15l1.82-1.82a14.47,14.47,0,0,1,2.64-2.64c1.32-1.1,3.3-1.66,5.95-1.66H284c.08-.31.17-.62.25-.94Z" style="fill: #669dea"/>
        <path d="M216.1,126.67q-10.57-11.9-10.57-34,0-21.14,10.24-33,10.57-12.23,29.41-12.23,18.46,0,29.2,10.33-10.85-11.27-30.15-11.27-18.82,0-29.4,12.22-10.26,11.9-10.25,33,0,22.16,10.58,34c.71.82,1.45,1.6,2.21,2.34C216.94,127.62,216.52,127.15,216.1,126.67Z" style="fill: #669dea"/>
        <path d="M260.88,75.17a17.54,17.54,0,0,0-2.82-4c-.23-.25-.47-.48-.72-.71a20.27,20.27,0,0,1,3.08,4.72Z" style="fill: #669dea"/>
      </g>
      <path d="M287,94.62q0-12.89,3.8-21.64a35.79,35.79,0,0,1,10.41-14,40.77,40.77,0,0,1,14.7-7.27,65.33,65.33,0,0,1,17.35-2.31h2.36v-1H332.3A65.26,65.26,0,0,0,315,50.72,41.14,41.14,0,0,0,300.25,58a35.84,35.84,0,0,0-10.4,14q-3.81,8.76-3.8,21.65V136.3H287Z" style="fill: #669dea"/>
      <g>
        <path d="M370.11,119.24a15.78,15.78,0,0,0,10.07.33q5.13-1.48,9.09-7.43T393.57,93q0-11.89-3.8-17.84a23.59,23.59,0,0,0-3.66-4.49,25.69,25.69,0,0,1,2.71,3.54q3.8,6,3.8,17.85-.33,13.22-4.29,19.16t-9.09,7.44a15.74,15.74,0,0,1-10.08-.34,17.91,17.91,0,0,1-5.65-3.09A15.66,15.66,0,0,0,370.11,119.24Z" style="fill: #669dea"/>
        <path d="M338.06,113.29a73.43,73.43,0,0,1-3-21,66.47,66.47,0,0,1,2.48-17.84,36.8,36.8,0,0,1,7.76-14.87,34.31,34.31,0,0,1,22.14-11.73Q381,46.05,391.91,50a34.07,34.07,0,0,1,11.29,7.14A34,34,0,0,0,391,49.07q-10.91-4-24.45-2.15a34.33,34.33,0,0,0-22.14,11.73,36.87,36.87,0,0,0-7.77,14.87,66.53,66.53,0,0,0-2.47,17.85,73.88,73.88,0,0,0,3,21,33.21,33.21,0,0,0,8.76,15A33.55,33.55,0,0,1,338.06,113.29Z" style="fill: #669dea"/>
      </g>
      <g>
        <polygon points="444.15 118.08 491.45 118.08 491.45 117.14 445.03 117.14 444.15 118.08" style="fill: #669dea"/>
        <path d="M421.06,63.44l.27.25a10.23,10.23,0,0,1-2.62-7.07V49.36h71.08v-1h-72v7.27A10.26,10.26,0,0,0,421.06,63.44Z" style="fill: #669dea"/>
        <polygon points="416.06 119.73 463.31 67.53 461.51 67.53 415.12 118.79 415.12 136.3 416.06 136.3 416.06 119.73" style="fill: #669dea"/>
      </g>
      <g>
        <path d="M501.82,127q-9.58-12.21-9.58-33.37,0-20.82,9.58-33.37,9.92-12.88,25.44-12.89a30.78,30.78,0,0,1,14.54,3.31,32.54,32.54,0,0,1,5.81,4.41,32.46,32.46,0,0,0-6.75-5.36,30.84,30.84,0,0,0-14.54-3.3q-15.54,0-25.44,12.88-9.58,12.57-9.59,33.38,0,21.15,9.59,33.37a24.66,24.66,0,0,0,2.58,2.82C502.89,128.28,502.34,127.66,501.82,127Z" style="fill: #669dea"/>
        <path d="M533.87,119.74a16.09,16.09,0,0,0,13.88-6.94q4.62-6.94,4.63-20.16,0-11.9-5-18.83a18.66,18.66,0,0,0-1.9-2c.33.35.65.72,1,1.1q5,6.94,5,18.83,0,13.23-4.63,20.16a16.06,16.06,0,0,1-13.87,6.94,16.8,16.8,0,0,1-11.83-4.23Q525.89,119.74,533.87,119.74Z" style="fill: #669dea"/>
        <path d="M552.38,60.92V23.25h11.23A10.45,10.45,0,0,1,570.84,26l-.24-.26a10.56,10.56,0,0,0-7.93-3.47H551.43v37.2C551.76,60,552.07,60.44,552.38,60.92Z" style="fill: #669dea"/>
      </g>
      <g>
        <path d="M632.88,110.86a7.14,7.14,0,0,0-2.48,2.64l-1.82,1.82a4.63,4.63,0,0,1-1.81,1.16,18.75,18.75,0,0,1-9.58,2.31q-7.31,0-11.48-3.81,4.27,4.76,12.42,4.76a18.63,18.63,0,0,0,9.58-2.32,4.52,4.52,0,0,0,1.82-1.15l1.82-1.82a7,7,0,0,1,2.48-2.64,9.83,9.83,0,0,1,6.11-1.66h15.32c.08-.31.17-.62.25-.94H639A9.85,9.85,0,0,0,632.88,110.86Z" style="fill: #669dea"/>
        <path d="M587.4,126.67q-10.57-11.9-10.57-34,0-21.14,10.24-33,10.57-12.23,29.41-12.23,18.46,0,29.2,10.33-10.84-11.27-30.15-11.27-18.82,0-29.4,12.22-10.26,11.9-10.25,33,0,22.16,10.58,34c.71.82,1.45,1.6,2.21,2.34C588.24,127.62,587.82,127.15,587.4,126.67Z" style="fill: #669dea"/>
        <path d="M629.37,71.16c-.27-.28-.55-.55-.83-.8q3.86,4.29,4.51,13.08H600.34c0,.31,0,.62-.05.94H634Q633.33,75.46,629.37,71.16Z" style="fill: #669dea"/>
      </g>
      <g>
        <path d="M728.39,92.36q-6.61-5.62-23.46-9.92a13,13,0,0,1-2.81-.33,30.78,30.78,0,0,1-3.47-1q-11.52-2.43-15.31-5.61,3.06,3.76,16.26,6.56a35.56,35.56,0,0,0,3.46,1,13.07,13.07,0,0,0,2.81.33q16.78,4.27,23.41,9.86C729,93,728.7,92.65,728.39,92.36Z" style="fill: #669dea"/>
        <path d="M706.2,68.19h0l1.7,1.7A12.77,12.77,0,0,0,710.38,73a12.74,12.74,0,0,1-1.53-2.13C708,70,707.08,69.07,706.2,68.19Z" style="fill: #669dea"/>
        <path d="M683.12,116.34a11.16,11.16,0,0,0,1.94,1.74q5,3.32,13.21,3.31a21.26,21.26,0,0,0,10.25-2.32c2.64-1.53,4-3.63,4-6.27a5.57,5.57,0,0,0-2.24-4.3,5.12,5.12,0,0,1,1.3,3.35c0,2.64-1.33,4.74-4,6.28a21.33,21.33,0,0,1-10.24,2.31q-8.26,0-13.22-3.3A11.15,11.15,0,0,1,683.12,116.34Z" style="fill: #669dea"/>
        <path d="M665,90.41q-5.36-5.72-5.35-14.62A26.33,26.33,0,0,1,669.2,55q9.9-7.59,25.77-7.6,17.17,0,27.42,7.6c.44.38.86.76,1.27,1.16a29.39,29.39,0,0,0-2.21-2.1q-10.25-7.61-27.43-7.6-15.85,0-25.77,7.6a26.32,26.32,0,0,0-9.58,20.81Q658.67,84.52,665,90.41Z" style="fill: #669dea"/>
        <path d="M657.63,109.16v-1h21.6c0-.31-.06-.62-.07-1H656.69v1q0,13.22,7.91,20.69Q657.63,121.56,657.63,109.16Z" style="fill: #669dea"/>
      </g>
      <g>
        <polygon points="762.38 81.74 790.46 49.35 816.39 49.35 817.27 48.41 789.52 48.41 762.38 79.7 762.38 81.74" style="fill: #669dea"/>
        <path d="M739.25,23.58h11.89a10.79,10.79,0,0,1,7.45,2.85c-.15-.16-.3-.33-.46-.49a10.85,10.85,0,0,0-7.94-3.3H738.3V136.3h1Z" style="fill: #669dea"/>
        <path d="M774.6,107.51a24.47,24.47,0,0,0-4.62-6.35,29.53,29.53,0,0,1,3.67,5.4l16.2,29.74h.43Z" style="fill: #669dea"/>
      </g>
      <g>
        <rect x="822.6" y="35.02" width="0.95" height="13.13" style="fill: #669dea"/>
        <path d="M818.47,33.78A1.78,1.78,0,0,1,820.26,32h10.89V31H819.31a1.81,1.81,0,0,0-1.79,1.79v1.25h1Z" style="fill: #669dea"/>
      </g>
      <g>
        <polygon points="841.34 45.02 844.73 31.94 849 31.94 849 30.99 843.78 30.99 840.75 42.72 841.34 45.02" style="fill: #669dea"/>
        <path d="M832.74,33.78a1.72,1.72,0,0,1,.52-1.27,1.89,1.89,0,0,1,1.27-.57h2.73L837,31h-3.43a2,2,0,0,0-1.27.58,1.7,1.7,0,0,0-.52,1.26V48.15h.94Z" style="fill: #669dea"/>
        <polygon points="846.66 35.27 845.72 39.03 845.72 48.15 846.66 48.15 846.66 35.27" style="fill: #669dea"/>
        <polygon points="836.02 35.27 836.02 38.03 838.61 48.15 839.31 48.15 836.02 35.27" style="fill: #669dea"/>
      </g>
    </g>
  </g>
</svg>
