<svg xmlns="http://www.w3.org/2000/svg" width="1024" height="1024" fill="none" viewBox="0 0 1024 1024"><rect width="1024" height="1024" fill="#2E59C7"/><path fill="#fff" d="M325 445.375H509.149L598.922 503.656H417.075L325 445.375Z"/><path fill="#fff" d="M342.484 357.953H514.879L598.922 503.656H428.682L342.484 357.953Z" opacity=".85"/><path fill="#fff" d="M365.797 270.531H522.52L598.922 503.656H444.158L365.797 270.531Z" opacity=".75"/><path fill="#fff" d="M394.938 188.938H532.07L598.922 503.656H463.504L394.938 188.938Z" opacity=".5"/><path fill="#fff" d="M424.078 119H541.62L598.922 503.656H482.849L424.078 119Z" opacity=".25"/><path fill="#fff" d="M698 579.422H513.851L424.078 521.141H605.925L698 579.422Z"/><path fill="#fff" d="M680.516 666.844H508.121L424.078 521.141H594.318L680.516 666.844Z" opacity=".85"/><path fill="#fff" d="M657.203 754.266H500.48L424.078 521.141H578.842L657.203 754.266Z" opacity=".75"/><path fill="#fff" d="M628.062 835.859H490.93L424.078 521.141H559.496L628.062 835.859Z" opacity=".5"/><path fill="#fff" d="M598.922 905.797H481.38L424.078 521.141H540.151L598.922 905.797Z" opacity=".25"/></svg>