<svg xmlns="http://www.w3.org/2000/svg" width="113" height="30" viewBox="0 0 113 30"><g fill="none" fill-rule="evenodd"><g><path fill="#2E383D" d="M103.05 7.152c2.222 0 4.12.573 5.691 1.72 1.572 1.146 2.683 2.742 3.334 4.786.433 1.382.65 2.832.65 4.351 0 1.492-.19 2.888-.569 4.186-.596 2.155-1.7 3.848-3.313 5.076-1.613 1.23-3.557 1.844-5.834 1.844-2.276 0-4.228-.607-5.854-1.823-1.626-1.215-2.738-2.873-3.333-4.973-.38-1.298-.57-2.707-.57-4.227 0-1.63.19-3.094.57-4.393.623-2.044 1.748-3.646 3.374-4.807 1.626-1.16 3.577-1.74 5.854-1.74zM11.258 1c2.148 0 4.031.354 5.65 1.06 1.618.707 2.871 1.7 3.76 2.98C21.555 6.32 22 7.8 22 9.48v11.04c0 1.68-.445 3.16-1.332 4.44-.889 1.28-2.142 2.274-3.76 2.98-1.619.707-3.502 1.06-5.65 1.06H.516c-.144 0-.266-.046-.366-.14-.1-.093-.15-.206-.15-.34V1.48c0-.133.05-.246.15-.34.1-.093.222-.14.366-.14h10.742zm24.161 6c.977 0 1.75.197 2.32.591.217.113.299.324.245.634l-.855 4.814c-.027.337-.217.436-.57.295-.407-.14-.882-.211-1.424-.211-.218 0-.516.028-.896.084-.977.085-1.805.458-2.483 1.12-.678.661-1.017 1.54-1.017 2.639v11.527c0 .142-.048.26-.143.36-.095.098-.21.147-.345.147h-4.763c-.136 0-.25-.049-.346-.148-.095-.098-.142-.217-.142-.359V7.803c0-.141.047-.26.142-.36.095-.098.21-.148.346-.148h4.763c.135 0 .25.05.345.148.095.1.143.219.143.36v1.604c0 .084.026.141.081.169.054.028.095.014.122-.042C32.055 7.844 33.547 7 35.42 7zm13.14 0c2.169 0 4.02.575 5.554 1.723 1.533 1.148 2.618 2.747 3.252 4.794.423 1.384.635 2.837.635 4.359 0 1.494-.185 2.892-.555 4.192-.582 2.159-1.66 3.854-3.233 5.085C52.638 28.385 50.742 29 48.52 29c-2.221 0-4.125-.608-5.712-1.826-1.587-1.218-2.671-2.878-3.253-4.981-.37-1.301-.555-2.712-.555-4.234 0-1.633.185-3.1.555-4.4.609-2.048 1.706-3.653 3.293-4.816C44.434 7.581 46.338 7 48.56 7zm54.41 5.166c-.922 0-1.688.263-2.297.787-.61.526-1.05 1.258-1.322 2.197-.217.663-.325 1.644-.325 2.942 0 1.243.095 2.21.285 2.901.27.967.725 1.727 1.362 2.28.636.553 1.416.828 2.337.828.895 0 1.653-.275 2.277-.829.623-.552 1.07-1.312 1.342-2.279.216-.884.325-1.85.325-2.9 0-1.161-.109-2.142-.325-2.943-.3-.94-.76-1.671-1.383-2.197-.624-.524-1.382-.787-2.276-.787zM11.435 6H6.218C6.072 6 6 6.066 6 6.196v17.608c0 .131.072.196.218.196h5.26c1.333 0 2.413-.406 3.24-1.218.826-.812 1.253-1.9 1.282-3.262v-9.04c0-1.362-.413-2.45-1.24-3.262C13.936 6.406 12.827 6 11.436 6zm37.045 6.023c-.9 0-1.646.263-2.241.788-.595.527-1.025 1.26-1.289 2.2-.212.665-.317 1.647-.317 2.948 0 1.245.092 2.214.277 2.905.264.97.708 1.73 1.329 2.283.621.555 1.382.83 2.28.83.873 0 1.614-.275 2.222-.83.608-.553 1.044-1.314 1.31-2.283.21-.885.316-1.853.316-2.905 0-1.163-.105-2.145-.317-2.948-.291-.94-.74-1.673-1.349-2.2-.608-.525-1.348-.788-2.22-.788zM84.4 28.86c-.089-.093-.133-.205-.133-.338V9.018c0-.133.044-.245.133-.338.088-.092.196-.139.323-.139h4.443c.126 0 .233.047.322.14.089.092.133.204.133.337v19.505c0 .133-.044.245-.133.338-.089.093-.196.139-.322.139h-4.443c-.127 0-.235-.046-.323-.14m.456-23.477C84.285 4.787 84 4.039 84 3.138c0-.927.278-1.681.836-2.264C85.392.292 86.114 0 87 0c.886 0 1.607.292 2.165.874.556.583.835 1.337.835 2.264 0 .9-.285 1.649-.854 2.245-.57.596-1.286.894-2.146.894-.86 0-1.576-.298-2.145-.894"/><path fill="#3E2588" d="M71.604 27.129L80.831 9.22c.629-1.22-.6-2.557-1.973-2.145l-8.069 5.547c-.316.095-.655.097-.972.007L61.121 7.2c-1.38-.393-2.588.96-1.942 2.172l9.482 17.777c.61 1.144 2.35 1.132 2.943-.02"/></g></g></svg>