<svg xmlns="http://www.w3.org/2000/svg" width="207" height="159" fill="none" viewBox="0 0 207 159"><rect width="207" height="159"/><path fill="#1D1D1B" d="M110.523 0.0712873L206.299 104.377L109.385 158.291L110.523 0.0712873Z"/><path fill="#1D1D1B" d="M49.3022 50.4927L95.0049 15.026L95.1136 0.434815L49.3022 50.4927Z"/><path fill="#1D1D1B" d="M21.9385 80.396L0.308594 104.033L6.28872 107.491L94.838 38.7753L94.9468 23.7493L21.9385 80.396Z"/><path fill="#1D1D1B" d="M12.7371 111.215L23.7767 117.594L94.6612 62.585L94.7699 47.559L12.7371 111.215Z"/><path fill="#1D1D1B" d="M30.1724 121.289L41.212 127.668L94.4895 86.3227L94.5982 71.2966L30.1724 121.289Z"/><path fill="#1D1D1B" d="M47.6086 131.364L58.6483 137.743L94.3189 110.061L94.4276 95.0347L47.6086 131.364Z"/><path fill="#1D1D1B" d="M64.9331 141.374L75.9727 147.752L94.1523 133.647L94.261 118.614L64.9331 141.374Z"/><path fill="#1D1D1B" d="M82.2566 151.383L93.9776 158.153L94.0936 142.199L82.2566 151.383Z"/></svg>