<svg enable-background="new 0 0 32 32" height="512" viewBox="0 0 32 32" width="512" xmlns="http://www.w3.org/2000/svg"><g id="BG"><path d="m26 32h-20c-3.314 0-6-2.686-6-6v-20c0-3.314 2.686-6 6-6h20c3.314 0 6 2.686 6 6v20c0 3.314-2.686 6-6 6z" fill="#e3f8fa"/></g><g id="Layer_3"><g><g><path d="m24 14.767v-6.034c0-.405-.328-.733-.733-.733h-14.534c-.405 0-.733.328-.733.733v6.033c0 .406.328.734.733.734h14.533c.406 0 .734-.328.734-.733z" fill="#26c6da"/></g><g><path d="m8 17.233v6.033c0 .406.328.734.733.734h14.533c.406 0 .734-.328.734-.733v-6.033c0-.405-.328-.733-.733-.733h-14.534c-.405-.001-.733.327-.733.732z" fill="#8ce1eb"/></g></g></g></svg>
