<svg xmlns="http://www.w3.org/2000/svg" width="512" height="512" enable-background="new 0 0 32 32" viewBox="0 0 32 32"><g id="BG"><path fill="#e3f8fa" d="m26 32h-20c-3.314 0-6-2.686-6-6v-20c0-3.314 2.686-6 6-6h20c3.314 0 6 2.686 6 6v20c0 3.314-2.686 6-6 6z"/></g><g id="Layer_3"><g><g><path fill="#26c6da" d="m24 14.767v-6.034c0-.405-.328-.733-.733-.733h-14.534c-.405 0-.733.328-.733.733v6.033c0 .406.328.734.733.734h14.533c.406 0 .734-.328.734-.733z"/></g><g><path fill="#8ce1eb" d="m8 17.233v6.033c0 .406.328.734.733.734h14.533c.406 0 .734-.328.734-.733v-6.033c0-.405-.328-.733-.733-.733h-14.534c-.405-.001-.733.327-.733.732z"/></g></g></g></svg>