<svg xmlns="http://www.w3.org/2000/svg" xmlns:xlink="http://www.w3.org/1999/xlink" width="512" height="512" preserveAspectRatio="xMidYMid meet" version="1.1" viewBox="0 0 640 640"><defs><path id="a3PF2DH5g5" d="M607.62 320C607.62 480.38 478.74 610.59 320 610.59C161.26 610.59 32.38 480.38 32.38 320C32.38 159.62 161.26 29.41 320 29.41C478.74 29.41 607.62 159.62 607.62 320Z"/><path id="aGya1w770" d="M508.81 368.71C508.81 493.03 405.66 593.96 278.61 593.96C151.56 593.96 48.42 493.03 48.42 368.71C48.42 244.4 151.56 143.47 278.61 143.47C405.66 143.47 508.81 244.4 508.81 368.71Z"/><path id="a15PEhKhXs" d="M594.06 279.7C594.06 404.02 490.91 504.95 363.86 504.95C236.81 504.95 133.66 404.02 133.66 279.7C133.66 155.39 236.81 54.46 363.86 54.46C490.91 54.46 594.06 155.39 594.06 279.7Z"/></defs><g><g><g><g><use fill-opacity="0" stroke="#2565da" stroke-opacity="1" stroke-width="32" opacity="1" xlink:href="#a3PF2DH5g5"/></g></g><g><g><use fill-opacity="0" stroke="#2565da" stroke-opacity="1" stroke-width="32" opacity="1" xlink:href="#aGya1w770"/></g></g><g><g><use fill-opacity="0" stroke="#2565da" stroke-opacity="1" stroke-width="32" opacity="1" xlink:href="#a15PEhKhXs"/></g></g></g></g></svg>