<svg xmlns="http://www.w3.org/2000/svg" viewBox="0 0 3139 3003"><path fill="none" d="M-1360 4438h5733v-5733h-5733z"/><path fill="#f9f7ed" d="M1472 3003h-2a5412 5412 0 012 0m358-12c201-14 400-40 597-82 30-5 59-8 83-16l18-5c-26 13-62 15-97 21-198 42-399 68-601 82"/><path fill="#633435" d="M1766 2995l64-4-64 4"/><path fill="#eae2c5" d="M893 529a630 630 0 00-37 318c11 96 28 190 37 287 37 394 48 777 99 1167a5700 5700 0 0036 236c33 120 9 294 138 346 403 166 850 87 1269 24 66-8 129-28 190-53a1880 1880 0 00216-111c63-38 123-80 179-128 9-9 16-20 23-30 37-66 34-153 43-228l13-134a12855 12855 0 0030-1516c-7-165-1-330-35-491-6-19-7-40-19-56-23-32-80 3-110 25l-23 20c-23 20-46 44-67 61l-33 29c-22 19-45 39-69 57a432 432 0 01-262 105c-258 1-514-9-772-21l-158-7c-159-6-317-9-475 4-87 11-169 36-212 95l-1 1"/><path fill="#eae2c5" d="M893 529a630 630 0 00-37 318c11 96 28 190 37 287 37 394 48 777 99 1167a5700 5700 0 0036 236c33 120 9 294 138 346 403 166 850 87 1269 24 66-8 129-28 190-53a1880 1880 0 00216-111c63-38 123-80 179-128 9-9 16-20 23-30 37-66 34-153 43-228l13-134a12855 12855 0 0030-1516c-7-165-1-330-35-491-6-19-7-40-19-56-23-32-80 3-110 25l-23 20c-23 20-46 44-67 61l-33 29c-22 19-45 39-69 57a432 432 0 01-262 105c-258 1-514-9-772-21l-158-7c-159-6-317-9-475 4-87 11-169 36-212 95l-1 1"/><path fill="#f3eee0" d="M2750 2794a3854 3854 0 0091-51c63-38 123-80 179-128 9-9 16-20 23-30 37-66 34-153 43-228a8349 8349 0 0013-136v2l-13 134c-9 75-6 162-43 228-7 10-14 21-23 30a1371 1371 0 01-270 179m349-574v-2 2m0-3v-2 2m0-2l1-3-1 3m1-3v-3 3m0-3v-3 3m0-3c21-238 31-474 35-711l-1 73c-5 212-15 425-34 638m37-842a14769 14769 0 00-4-477c8 159 6 318 4 477"/><path fill="#e7dec1" d="M2549 2867c8-11 14-25 15-44a7961 7961 0 0058-693c31 38 66 71 108 95 26 15 55 25 84 25 9 0 17-1 25-3 33-7 60-30 83-54 145-151 159-362 142-566l-8-76c-35-250-51-501-80-752-2-28-5-56-10-83-5-28-12-55-24-80s-29-47-52-64c-17-11-36-18-59-18h-3a156 156 0 00-70 16c-99 66-81 201-119 302-3 7-9 20-11 20h-1c-7-12-13-25-18-38l-11-227 28-38a345 345 0 0135-41l137-113a747 747 0 0066-55 2431 2431 0 00192-184l2-3a187 187 0 0018-28l-1-5c12 16 13 37 19 56a1241 1241 0 0117 146 17664 17664 0 0114 287c3 47 3 96 4 143a37133 37133 0 004 95 19237 19237 0 012 608c-4 237-14 473-35 711v6l-1 3v8l-13 134c-9 75-6 162-43 228-7 10-14 21-23 30a1376 1376 0 01-270 179c-27 12-54 22-81 32-40 14-81 26-120 41"/><path fill="#f6f4e5" d="M41 646c5-16 12-32 19-47 66-118 181-198 275-292l47-39 41-35 79-70c70-55 130-126 220-150 23-5 45-12 69-12 548-5 1095 14 1641 50a6094 6094 0 01482 60l35 8 108 27c5 1 11 5 15 9 4 5 6 10 3 13l-19 28a4456 4456 0 01-67 67c-101 104-214 188-328 285-32 28-56 66-82 102a437 437 0 01-77 82 1396 1396 0 01-110 83c-25 17-51 33-79 46-28 14-57 24-88 32-33 9-66 1-90-22l-70-32c-47-21-94-43-141-62-100-45-204-69-309-83-35-4-71-8-106-10-175-12-349-12-524-25l-107-5c-99-4-199-6-299-7h-60l-173-2c-88-1-177-3-265-1l-40 2"/><path fill="#e7e0c3" d="M2598 627v-4a485 485 0 0128-34l-28 38m324-299a1604 1604 0 00101-98l33-34 2-3-2 3a4456 4456 0 01-134 132"/><path fill="#fbfaf4" d="M3075 160"/><path fill="#e7e0c3" d="M3076 165l-1-5 1 5"/><path fill="#fbfaf4" d="M2432 51l-11-1 11 1M947 0"/><path fill="#f4f0de" d="M2598 623l-2-59a7507 7507 0 00-682-56c-188-9-375-12-563-12-380 0-760 12-1138 17-48 1-95 19-131 51 68-100 168-173 253-257l47-39 41-35 79-70c70-55 130-126 220-150 23-5 45-12 69-12l156-1c492 0 984 18 1474 50l11 1a6094 6094 0 01482 60l35 8 108 27a29 29 0 0118 14l1 5-1 3c-5 9-11 18-17 25l-2 3a4456 4456 0 01-134 132l-11 10-2 2a2487 2487 0 01-79 68l-1 1-31 26c-50 39-103 74-146 122-20 20-37 43-54 66M902 39a717 717 0 00-106 8c-48 10-94 31-135 67-95 82-181 162-278 240-20 19-40 40-58 63a41 41 0 006 59l20-3 164-12 81-6a3920 3920 0 01265-13 23084 23084 0 01693-5 7741 7741 0 01677 27c34 3 70 6 107 6 107 0 219-22 278-115 20-35 31-77 35-114 6-40-47-80-93-97a453 453 0 00-148-32l-66-6c-391-32-782-39-1174-49-90-2-178-18-268-18"/><path fill="#f4f0de" d="M42 609C21 666 9 724 3 783c-10 412 6 826 42 1239a4807 4807 0 0067 492c29 125 25 290 155 356 56 28 119 37 178 50l102 18a4140 4140 0 00308 36c523 46 1057 45 1572-65 66-10 132-14 137-86a8030 8030 0 0065-916c10-447-14-895-33-1343a7507 7507 0 00-682-56c-566-26-1136-2-1701 5-68 1-132 37-171 95v1"/><path fill="#eee7cf" d="M2172 899c-7 0-14-1-21-4-14-7-22-22-22-37 0-12 5-25 15-35 8-13 24-19 39-19l11 1c16 5 30 17 32 35a53 53 0 01-54 59M2144 1086l-14-3c-9-4-14-14-14-23 0-7 3-15 8-22s14-11 23-11l8 1c10 3 20 12 21 23 2 11-2 20-10 28-6 5-14 7-22 7M2340 1081c-11 0-22-2-32-8-18-9-29-28-30-45-1-14 3-29 14-40 8-12 23-19 39-19 6 0 13 1 19 3 20 7 38 24 42 45s-2 39-16 52c-10 8-23 12-36 12M412 2475l-9-1c-12-4-21-14-23-28-1-9 4-19 12-24a31 31 0 0123-5c11 1 21 10 25 21 3 10 1 22-8 30-6 5-13 7-20 7M1030 2593c-12 0-25-8-31-20-5-12-1-26 9-34a31 31 0 0123-4c13 0 20 11 26 20 2 9 1 18-4 26-6 9-14 12-23 12"/><path fill="#efe9d2" d="M1277 316c-8 0-15-4-21-9-9-9-12-22-8-36a26 26 0 0125-16c7 0 14 3 20 7 10 6 14 19 12 30-2 10-9 20-20 23l-8 1"/><path fill="#e4dabb" d="M2797 1665c-7 0-14-2-21-5-14-6-22-21-22-36 0-12 5-25 15-36 8-12 24-19 39-19l11 2c16 4 30 17 32 35 2 17-5 33-18 45-10 9-23 14-36 14M2907 1461l-15-3c-9-4-14-14-14-23 0-8 3-16 9-22 4-7 13-11 23-11l8 1c10 3 19 11 20 22 2 11-2 21-10 28-6 5-14 8-21 8"/><path fill="#f8f5ea" d="M224 1494l-21-3c-45-12-50-79-58-128a729 729 0 01-6-102c1-53 13-105 46-147 15-19 34-32 56-32l13 2c44 12 65 63 70 111a962 962 0 015 113c2 77-35 186-105 186M218 998c-24 0-49-18-53-47a185 185 0 0114-131c12-22 33-35 53-35 13 0 26 5 37 17 16 17 24 38 29 61 11 59-20 127-74 135h-6"/><path fill="#faf8ee" d="M538 381c-21 0-40-9-49-30-11-25 15-48 31-66a316 316 0 0139-34 116 116 0 0176-24c16 2 30 9 37 24 11 24-2 50-20 67a415 415 0 01-44 37c-18 14-45 26-70 26M731 225c-13 0-25-4-35-15-11-11-14-30-3-42 5-6 11-12 18-17a83 83 0 0143-16c20 0 39 16 37 37-1 13-7 23-14 32a61 61 0 01-46 21"/></svg>