<?xml version="1.0" encoding="utf-8"?>
<!-- Generator: Adobe Illustrator 24.2.3, SVG Export Plug-In . SVG Version: 6.00 Build 0)  -->
<svg version="1.1" id="Capa_1" xmlns="http://www.w3.org/2000/svg" xmlns:xlink="http://www.w3.org/1999/xlink" x="0px" y="0px"
	 viewBox="0 0 77.9 53.8" style="enable-background:new 0 0 77.9 53.8;" xml:space="preserve">
<style type="text/css">
	.st0{fill:#0E0E20;}
</style>
<path class="st0" d="M77.9,38.6c-0.1-0.6-0.5-1.2-1-1.5s-1.2-0.5-1.8-0.3l-3.8,0.8l-0.5-11.4c0-0.8-0.4-1.5-1.1-1.9
	s-1.5-0.5-2.2-0.2l-3.2,1.3c1.3-2.6,2.3-5.3,3-8c0.9-3.7,1.2-7.5,0.9-10.6c-0.2-1.6-0.5-2.8-1-3.9c-0.7-1.4-1.6-2.3-2.8-2.7
	C63.8,0,63.2-0.1,62.5,0c-0.5,0-1.1,0.2-1.7,0.4c-1,0.3-2,0.9-3.2,1.6c-2,1.3-4.2,3.1-6.8,5.5c-4.6,4.4-8.9,9.4-10.7,12.5
	c-0.5,0.8-0.8,1.6-1.1,2.4c-0.3-0.8-0.6-1.6-1.1-2.4c-1.8-3.1-6.1-8.2-10.7-12.5c-2.5-2.4-4.8-4.3-6.8-5.5c-1.2-0.8-2.2-1.3-3.2-1.6
	C16.6,0.2,16,0.1,15.5,0c-0.7-0.1-1.3,0-1.9,0.2c-1.2,0.4-2.1,1.3-2.8,2.7C10.3,4,10,5.2,9.8,6.8c-0.4,3.1-0.1,6.8,0.9,10.6
	c0.7,2.8,1.7,5.5,3,8l-3.2-1.3c-0.7-0.3-1.5-0.2-2.2,0.2c-0.6,0.4-1.1,1.1-1.1,1.9L6.7,37.6l-3.8-0.8c-1.3-0.3-2.5,0.6-2.8,1.8
	c-0.3,1.3,0.6,2.5,1.8,2.8l6.6,1.4c0.7,0.1,1.4,0,1.9-0.5c0.5-0.4,0.9-1.1,0.9-1.8l0.5-10.8l6.6,2.7c0.3,0.3,0.6,0.7,0.9,1
	c-0.3,0.1-0.6,0.2-0.9,0.4c-0.6,0.5-0.9,1.2-0.9,2l0.7,12.1L15,49.2c-1.2,0.5-1.8,1.9-1.3,3.1c0.2,0.6,0.7,1,1.3,1.3
	c0.3,0.1,0.6,0.2,0.9,0.2c0.3,0,0.6-0.1,0.9-0.2l4.7-2c0.9-0.4,1.5-1.3,1.5-2.3l-0.6-10.4l5.4,1.6l0,0c0,0.1,0,0.2-0.1,0.3
	c0,0.3-0.1,0.7-0.1,1v0.1c0,0.3,0,0.7,0.1,1.1v0.2c0.1,0.4,0.1,0.7,0.2,1v0.1c0.1,0.4,0.2,0.7,0.4,1.1c1.7,3.7,5.8,6.2,10.4,6.2
	c4.5,0,8.7-2.5,10.4-6.3c0.1-0.3,0.3-0.7,0.4-1.1v-0.1c0.1-0.3,0.2-0.7,0.2-1V43c0.1-0.4,0.1-0.8,0.1-1.1v-0.1c0-0.3,0-0.6-0.1-1
	c0-0.1,0-0.2-0.1-0.3v-0.1l5.4-1.6l-0.6,10.4c-0.1,1,0.5,1.9,1.5,2.3l4.7,2c0.6,0.2,1.2,0.2,1.8,0c0.6-0.2,1-0.7,1.3-1.3
	c0.5-1.2-0.1-2.6-1.3-3.1l-3.2-1.3l0.7-12.1c0.1-1.1-0.7-2.2-1.8-2.4c0.3-0.3,0.6-0.7,0.9-1l6.6-2.7l0.5,10.8c0,0.7,0.4,1.3,0.9,1.8
	c0.6,0.4,1.3,0.6,1.9,0.5l6.6-1.4C77.3,41.1,78.2,39.9,77.9,38.6z M42.1,46.4c-1.8,0.8-4.2,0.8-6.1,0c1.2-0.6,2.2-1.4,3-2.4
	C39.9,45,41,45.8,42.1,46.4z M32.7,41.5v-0.2c0-0.1,0-0.2,0-0.3s0-0.1,0.1-0.2c0-0.1,0-0.1,0.1-0.2c0-0.1,0.1-0.2,0.1-0.2l0.1-0.1
	c0-0.1,0.1-0.2,0.1-0.3c0.7-1.2,1.9-2.2,3.4-2.7c0.1,0.2,0.1,0.5,0.1,0.7c0,2.1-1.6,3.9-4,4.7c-0.1-0.2-0.1-0.5-0.1-0.7
	C32.7,41.8,32.7,41.7,32.7,41.5z M34.3,33.1c-0.1,0-0.1,0.1-0.2,0.1H34c-0.2,0.1-0.5,0.2-0.7,0.4l-0.1,0.1c-0.2,0.1-0.4,0.3-0.7,0.4
	l-0.1,0.1c-0.2,0.1-0.4,0.3-0.6,0.5l-0.2,0.1c-0.2,0.2-0.4,0.3-0.6,0.5l-0.1,0.1c-0.2,0.2-0.3,0.3-0.5,0.5l-0.2,0.2l0,0
	C20.3,30,16.8,21,15.5,16.2c-0.8-3.1-1.1-6.3-0.7-8.8c0.1-1,0.3-1.9,0.6-2.4c0-0.1,0.1-0.2,0.1-0.2c0.1,0,0.2,0,0.4,0.1
	c0.6,0.2,1.3,0.6,2.2,1.1c1.7,1.1,3.8,2.8,6.1,5c4.4,4.2,8.5,9.2,9.8,11.5C36.1,26.2,34.6,31.9,34.3,33.1z M46.7,34.7l-0.2-0.2
	c-0.2-0.1-0.4-0.3-0.5-0.4c-0.1,0-0.1-0.1-0.3-0.2c-0.2-0.1-0.4-0.2-0.6-0.4l-0.3-0.1c-0.2-0.1-0.4-0.2-0.6-0.3L43.9,33
	c-0.4-1.2-1.8-6.9,0.4-10.7c1.3-2.2,5.4-7.3,9.8-11.5c2.3-2.2,4.4-3.9,6.1-5c0.8-0.5,1.6-0.9,2.2-1.1c0.1-0.1,0.3-0.1,0.4-0.1
	c0,0.1,0.1,0.1,0.1,0.2c0.3,0.6,0.5,1.5,0.6,2.4c0.3,2.5,0,5.7-0.7,8.8c-1.2,4.8-4.7,13.8-14.7,19.9l0,0l-0.2-0.2
	c-0.1-0.2-0.3-0.3-0.5-0.5L47.2,35C47,35,46.8,34.9,46.7,34.7z M41.5,37.3c1.5,0.5,2.7,1.4,3.5,2.7c0,0.1,0.1,0.1,0.1,0.3l0.1,0.2
	c0,0.1,0.1,0.1,0.1,0.2c0,0.1,0,0.1,0.1,0.2v0.2c0,0.1,0,0.2,0.1,0.3v0.2c0,0.1,0,0.3,0,0.4c0,0.2,0,0.5-0.1,0.7
	c-2.4-0.8-4-2.6-4-4.6C41.5,37.8,41.5,37.5,41.5,37.3z"/>
</svg>
