<?xml version="1.0" encoding="UTF-8" standalone="no"?>
<svg
   xmlns:dc="http://purl.org/dc/elements/1.1/"
   xmlns:cc="http://creativecommons.org/ns#"
   xmlns:rdf="http://www.w3.org/1999/02/22-rdf-syntax-ns#"
   xmlns:svg="http://www.w3.org/2000/svg"
   xmlns="http://www.w3.org/2000/svg"
   version="1.1"
   title="m.svg (7KB)"
   preserveAspectRatio="xMidYMid meet"
   viewBox="0 0 5290.778 5611.0002"
   height="373.50333"
   width="352.71854"
   style="display:inline"
   id="outputsvg">
  <metadata
     id="metadata3787">
    <rdf:RDF>
      <cc:Work
         rdf:about="">
        <dc:format>image/svg+xml</dc:format>
        <dc:type
           rdf:resource="http://purl.org/dc/dcmitype/StillImage" />
        <dc:title></dc:title>
      </cc:Work>
    </rdf:RDF>
  </metadata>
  <defs
     id="defs3785" />
  <g
     transform="translate(-454.23094,-392.94962)"
     style="fill:#fc6a21;stroke:none"
     id="layer102" />
  <g
     transform="translate(-1225.8824,-608)"
     style="fill:#ff6334;fill-opacity:1;stroke:none"
     id="layer103">
    <path
       style="fill:#ff6334;fill-opacity:1"
       d="m 1871,2424 c 0,-11 3,-14 6,-6 3,7 2,16 -1,19 -3,4 -6,-2 -5,-13 z m -570,-8 -1,-29 -20,23 -20,23 v -24 c 0,-19 -2,-21 -10,-9 -21,34 -31,-7 -28,-125 l 3,-119 110,-68 c 61,-37 155,-93 210,-125 141,-79 760,-439 878,-509 54,-33 113,-67 132,-77 19,-9 35,-22 35,-27 0,-6 7,-10 16,-10 20,0 104,-49 104,-61 0,-5 9,-9 20,-9 11,0 29,-9 40,-20 11,-11 25,-20 31,-20 9,0 309,-171 439,-250 8,-5 53,-31 98,-57 46,-26 100,-58 120,-70 21,-12 52,-28 70,-37 17,-8 32,-20 32,-25 0,-6 9,-11 19,-11 11,0 23,-5 26,-10 4,-6 21,-17 38,-26 75,-35 107,-55 107,-64 0,-6 7,-10 16,-10 9,0 38,-13 64,-29 47,-29 48,-29 78,-11 16,10 33,23 36,29 4,6 16,11 27,11 10,0 19,5 19,11 0,5 15,17 33,25 17,9 48,25 69,37 20,12 58,35 85,50 26,15 55,32 63,38 8,5 26,14 40,21 14,7 32,17 40,24 37,29 540,314 554,314 9,0 16,4 16,9 0,12 103,71 124,71 9,0 16,4 16,9 0,5 37,30 83,56 45,25 89,50 97,55 93,56 558,328 745,435 132,75 309,178 392,228 l 153,92 v 122 c 0,88 -4,125 -13,135 -8,7 -16,20 -20,28 -3,9 -6,2 -7,-15 -1,-26 -3,-27 -10,-10 -5,11 -9,16 -10,10 -1,-5 -5,-1 -10,10 -7,17 -9,16 -10,-10 -1,-26 -3,-27 -10,-10 -5,11 -9,16 -10,10 -1,-5 -5,-1 -10,10 -7,17 -9,16 -10,-10 -1,-26 -3,-27 -10,-10 -5,11 -9,16 -10,10 -1,-5 -5,-1 -10,10 -7,17 -9,16 -10,-10 -1,-26 -3,-27 -10,-10 -5,11 -9,16 -10,10 -1,-5 -5,-1 -10,10 -7,17 -9,16 -10,-10 -1,-26 -3,-27 -10,-10 -5,11 -9,16 -10,10 -1,-5 -5,-1 -10,10 -7,17 -9,16 -10,-10 -1,-26 -3,-27 -10,-10 -5,11 -9,16 -10,10 -1,-5 -5,-1 -10,10 -7,17 -9,16 -10,-10 -1,-26 -3,-27 -10,-10 -5,11 -9,16 -10,10 -1,-5 -5,-1 -10,10 -7,17 -9,16 -10,-10 -1,-26 -3,-27 -10,-10 -5,11 -9,16 -10,10 -1,-5 -5,-1 -10,10 -7,17 -9,16 -10,-10 -1,-26 -3,-27 -10,-10 -5,11 -9,16 -10,10 -1,-5 -5,-1 -10,10 -7,17 -9,16 -9,-9 l -1,-29 -20,23 -20,23 v -23 -23 l -20,23 -20,23 v -23 -23 l -20,23 c -20,23 -20,23 -20,2 0,-12 -3,-22 -6,-22 -4,0 -15,10 -25,22 l -19,21 v -23 -23 l -20,23 -20,23 v -22 c 0,-19 -2,-20 -13,-9 -8,7 -16,20 -20,28 -4,12 -6,12 -6,-2 -1,-9 4,-20 9,-23 22,-13 8,-33 -42,-60 -29,-16 -151,-84 -270,-152 -119,-67 -222,-123 -228,-123 -11,0 -125,63 -478,263 -68,38 -126,67 -129,64 -3,-4 -13,1 -22,10 -15,15 -16,15 -19,0 -3,-14 -6,-15 -16,-4 -7,7 -15,19 -19,27 -3,9 -6,2 -7,-15 -1,-26 -3,-27 -10,-10 -5,11 -9,16 -10,10 -1,-5 -5,-1 -10,10 -7,17 -9,16 -10,-10 -1,-26 -3,-27 -10,-10 -5,11 -9,16 -10,10 -1,-5 -5,-1 -10,10 -7,17 -9,16 -10,-10 -1,-26 -3,-27 -10,-10 -5,11 -9,16 -10,10 -1,-5 -5,-1 -10,10 -7,17 -9,16 -10,-10 -1,-26 -3,-27 -10,-10 -5,11 -9,16 -10,10 -1,-5 -5,-1 -10,10 -7,17 -9,16 -10,-10 -1,-26 -3,-27 -10,-10 -5,11 -9,16 -10,10 -1,-5 -5,-1 -10,10 -7,17 -9,16 -10,-10 -1,-26 -3,-27 -10,-10 -5,11 -9,16 -10,10 -1,-5 -5,-1 -10,10 -7,17 -9,16 -10,-10 -1,-26 -3,-27 -10,-10 -5,11 -9,16 -10,10 -1,-5 -5,-1 -10,10 -7,17 -9,16 -10,-10 -1,-26 -3,-27 -10,-10 -5,11 -9,16 -10,10 -1,-5 -5,-1 -10,10 -7,17 -9,16 -10,-10 -1,-26 -3,-27 -10,-10 -5,11 -9,16 -10,10 -1,-5 -5,-1 -10,10 -7,17 -9,16 -9,-9 l -1,-29 -20,23 -20,23 v -23 -23 l -20,23 -20,23 v -21 c 0,-28 -8,-28 -31,0 l -19,21 v -23 -23 l -20,23 -20,23 v -22 c 0,-19 -2,-20 -13,-9 -8,7 -16,20 -20,28 -3,9 -6,2 -7,-15 -1,-26 -3,-27 -10,-10 -5,11 -9,16 -10,10 -1,-5 -5,-1 -10,10 -7,17 -9,16 -10,-10 -1,-26 -3,-27 -10,-10 -5,11 -9,16 -10,10 -1,-5 -5,-1 -10,10 -7,17 -9,16 -10,-10 -1,-26 -3,-27 -10,-10 -5,11 -9,16 -10,10 -1,-5 -5,-1 -10,10 -7,17 -9,16 -10,-10 -1,-26 -3,-27 -10,-10 -5,11 -9,16 -10,10 -1,-5 -5,-1 -10,10 -7,17 -9,16 -10,-10 -1,-26 -3,-27 -10,-10 -5,11 -9,16 -10,10 -1,-5 -5,-1 -10,10 -7,17 -9,16 -10,-10 -1,-26 -3,-27 -10,-10 -5,11 -9,16 -10,10 -1,-5 -5,-1 -10,10 -7,17 -9,16 -10,-10 -1,-26 -3,-27 -10,-10 -5,11 -9,16 -10,10 -1,-5 -5,-1 -10,10 -7,17 -9,16 -10,-10 -1,-26 -3,-27 -10,-10 -5,11 -9,16 -10,10 -1,-5 -5,-1 -10,10 -7,17 -9,16 -10,-10 -1,-26 -3,-27 -10,-10 -5,11 -9,16 -10,10 -1,-5 -5,-1 -10,10 -7,17 -9,16 -9,-9 l -1,-29 -20,23 -20,23 v -23 -23 l -20,23 -20,23 v -23 -23 l -20,23 c -20,23 -20,23 -20,2 0,-28 -8,-28 -31,0 l -19,21 v -23 -23 l -20,23 -20,23 v -22 c 0,-19 -2,-20 -13,-9 -8,7 -16,20 -20,28 -3,9 -6,2 -7,-15 -1,-26 -3,-27 -10,-10 -5,11 -9,16 -10,10 -1,-5 -5,-1 -10,10 -7,17 -9,16 -10,-10 -1,-26 -3,-27 -10,-10 -5,11 -9,16 -10,10 -1,-5 -5,-1 -10,10 -7,17 -9,16 -10,-10 -1,-26 -3,-27 -10,-10 -5,11 -9,16 -10,10 -1,-5 -5,-1 -10,10 -7,17 -9,16 -10,-10 -1,-26 -3,-27 -10,-10 -5,11 -9,16 -10,10 -1,-5 -5,-1 -10,10 -7,17 -9,16 -10,-10 -1,-26 -3,-27 -10,-10 -5,11 -9,16 -10,10 -1,-5 -5,-1 -10,10 -7,17 -9,16 -10,-10 -1,-26 -3,-27 -10,-10 -5,11 -9,16 -10,10 -1,-5 -5,-1 -10,10 -7,17 -9,16 -10,-10 -1,-26 -3,-27 -10,-10 -5,11 -9,16 -10,10 -1,-5 -5,-1 -10,10 -7,17 -9,16 -10,-10 -1,-26 -3,-27 -10,-10 -5,11 -9,16 -10,10 -1,-5 -5,-1 -10,10 -7,17 -9,16 -10,-10 -1,-26 -3,-27 -10,-10 -5,11 -9,16 -10,10 -1,-5 -5,-1 -10,10 -8,18 -9,17 -9,-8 -1,-27 -2,-27 -18,-11 -16,15 -17,15 -24,-2 -4,-11 -8,-13 -8,-6 -1,10 -19,4 -58,-19 -64,-35 -92,-51 -232,-129 -52,-29 -146,-81 -208,-116 -61,-35 -117,-64 -123,-64 -8,0 -163,85 -517,287 -24,13 -43,28 -43,34 0,6 -7,17 -15,25 -13,14 -15,13 -15,-7 v -22 l -20,23 -20,23 -1,-24 c 0,-13 -3,-18 -6,-11 -2,6 -11,12 -18,12 -7,0 -16,6 -18,13 -3,6 -6,1 -6,-12 l -1,-24 -20,23 -20,23 v -23 -23 l -20,23 -20,23 -1,-24 c 0,-22 -1,-23 -9,-4 -5,11 -9,16 -10,10 -1,-5 -5,-1 -10,10 -7,17 -9,16 -10,-10 -1,-26 -3,-27 -10,-10 -5,11 -9,16 -10,10 -1,-5 -5,-1 -10,10 -7,17 -9,16 -10,-10 -1,-26 -3,-27 -10,-10 -5,11 -9,16 -10,10 -1,-5 -5,-1 -10,10 -7,17 -9,16 -10,-10 -1,-26 -3,-27 -10,-10 -5,11 -9,16 -10,10 -1,-5 -5,-1 -10,10 -7,17 -9,16 -10,-10 -1,-26 -3,-27 -10,-10 -5,11 -9,16 -10,10 -1,-5 -5,-1 -10,10 -7,17 -9,16 -10,-10 -1,-26 -3,-27 -10,-10 -5,11 -9,16 -10,10 -1,-5 -5,-1 -10,10 -7,17 -9,16 -10,-10 -1,-26 -3,-27 -10,-10 -5,11 -9,16 -10,10 -1,-5 -5,-1 -10,10 -7,17 -9,16 -10,-10 -1,-26 -3,-27 -10,-10 -5,11 -9,16 -10,10 -1,-5 -5,-1 -10,10 -7,17 -9,16 -10,-10 -1,-26 -3,-27 -10,-10 -5,11 -9,16 -10,10 -1,-5 -5,-1 -10,10 -7,17 -9,16 -9,-9 z m 2909,-314 c 69,-42 224,-133 345,-203 120,-69 221,-131 222,-136 2,-6 -96,-68 -219,-138 -123,-70 -328,-188 -456,-262 l -233,-135 -197,115 c -108,63 -313,181 -455,262 -142,81 -256,152 -254,158 1,5 66,46 143,90 76,44 220,128 319,187 210,125 354,209 408,238 l 39,20 106,-60 c 59,-33 163,-95 232,-136 z M 2315,5849 c -352,-204 -734,-425 -850,-491 -115,-67 -218,-128 -227,-136 -17,-14 -18,-101 -18,-1548 V 2140 l 22,-14 c 24,-14 631,-365 1688,-975 146,-84 417,-241 602,-348 l 338,-195 342,198 c 460,265 750,432 1263,729 237,137 567,328 735,424 l 305,176 3,1536 c 2,1453 1,1537 -15,1551 -10,8 -157,95 -328,194 -170,98 -553,319 -850,491 l -540,312 -3,-684 c -1,-409 -6,-685 -11,-685 -8,0 -608,342 -814,464 -43,25 -82,46 -85,46 -4,0 -41,-20 -82,-43 -630,-363 -813,-467 -821,-467 -5,0 -10,276 -11,685 l -3,684 z m 105,-1264 c 0,-377 2,-685 5,-685 3,0 202,114 443,254 240,139 564,326 720,415 l 282,163 283,-163 c 155,-89 479,-276 720,-416 240,-139 439,-253 442,-253 3,0 5,308 5,685 0,377 3,685 8,685 4,0 149,-82 322,-183 l 315,-182 3,-967 c 1,-713 -1,-968 -9,-968 -6,0 -230,127 -498,282 -267,155 -587,340 -711,411 -124,71 -372,215 -552,319 l -327,189 -588,-339 c -323,-187 -788,-455 -1033,-597 -245,-142 -453,-260 -463,-263 -16,-4 -17,45 -15,964 l 3,969 315,182 c 173,101 318,183 323,183 4,0 7,-308 7,-685 z M 4322,3279 c 249,-144 633,-366 853,-494 220,-127 462,-267 538,-310 75,-44 137,-82 137,-85 0,-3 -119,-75 -265,-159 l -265,-153 -67,38 c -38,21 -362,208 -722,416 -359,208 -656,378 -660,378 -4,0 -203,-113 -442,-251 -239,-138 -563,-325 -721,-416 l -287,-165 -266,153 c -146,84 -265,156 -265,159 0,5 325,194 1160,676 212,122 482,278 600,347 118,69 216,126 217,126 1,1 205,-117 455,-260 z m 5,-1260 c 238,-138 433,-254 433,-258 0,-3 -200,-122 -445,-264 l -445,-257 -445,257 c -245,142 -444,261 -442,266 5,16 882,517 896,512 8,-3 209,-118 448,-256 z"
       id="path3779" />
  </g>
</svg>
