<svg width="148" height="32" viewBox="0 0 148 32" fill="none" xmlns="http://www.w3.org/2000/svg">
<mask id="path-1-inside-1" fill="white">
<path d="M11.257 0.0487805C10.9128 0 10.5195 0 10.1262 0C9.19208 0 8.25797 0.146341 7.32386 0.439024C4.27571 1.46341 1.96501 4.09756 0.785081 7.80488C-0.345685 11.4146 -0.247357 15.6585 1.0309 19.7561C3.14494 26.3902 8.06132 31.3171 13.2727 31.9512C13.666 32 14.0593 32 14.4034 32C15.3376 32 16.2717 31.8537 17.2058 31.561C20.2539 30.5366 22.6138 27.9512 23.7446 24.1951C24.8753 20.5854 24.777 16.3415 23.4987 12.2439C21.3847 5.60976 16.4683 0.731707 11.257 0.0487805Z"/>
</mask>
<path d="M11.257 0.0487805L10.9763 2.02899L10.9867 2.03046L10.9971 2.03183L11.257 0.0487805ZM7.32386 0.439024L6.72587 -1.46949L6.70624 -1.46333L6.68674 -1.45678L7.32386 0.439024ZM0.785081 7.80488L-1.12074 7.19831L-1.12347 7.20702L0.785081 7.80488ZM1.0309 19.7561L-0.878391 20.3517L-0.874687 20.3633L1.0309 19.7561ZM13.2727 31.9512L13.5188 29.9664L13.5143 29.9659L13.2727 31.9512ZM17.2058 31.561L17.8038 33.4695L17.8234 33.4633L17.8429 33.4568L17.2058 31.561ZM23.7446 24.1951L21.836 23.5973L21.8327 23.6079L21.8295 23.6186L23.7446 24.1951ZM23.4987 12.2439L25.408 11.6483L25.4043 11.6367L23.4987 12.2439ZM11.5376 -1.93143C11.0266 -2.00387 10.4828 -2 10.1262 -2V2C10.5562 2 10.7991 2.00387 10.9763 2.02899L11.5376 -1.93143ZM10.1262 -2C8.97972 -2 7.84419 -1.81989 6.72587 -1.46949L7.92185 2.34753C8.67175 2.11257 9.40445 2 10.1262 2V-2ZM6.68674 -1.45678C2.89233 -0.181596 0.202042 3.04222 -1.12072 7.19832L2.69088 8.41144C3.72798 5.1529 5.65909 3.10843 7.96098 2.33483L6.68674 -1.45678ZM-1.12347 7.20702C-2.39353 11.2614 -2.25904 15.9258 -0.878355 20.3517L2.94016 19.1605C1.76433 15.3913 1.70216 11.5678 2.69363 8.40274L-1.12347 7.20702ZM-0.874687 20.3633C1.3814 27.4432 6.77333 33.1751 13.0311 33.9366L13.5143 29.9659C9.3493 29.459 4.90848 25.3372 2.93649 19.1489L-0.874687 20.3633ZM13.0265 33.936C13.5613 34.0023 14.0754 34 14.4034 34V30C14.0432 30 13.7707 29.9977 13.5188 29.9664L13.0265 33.936ZM14.4034 34C15.5499 34 16.6854 33.8199 17.8038 33.4695L16.6078 29.6525C15.8579 29.8874 15.1252 30 14.4034 30V34ZM17.8429 33.4568C21.6148 32.1892 24.3778 29.0296 25.6597 24.7717L21.8295 23.6186C20.8498 26.8728 18.893 28.884 16.5687 29.6652L17.8429 33.4568ZM25.6531 24.793C26.9232 20.7386 26.7887 16.0742 25.408 11.6483L21.5895 12.8395C22.7653 16.6087 22.8275 20.4322 21.836 23.5973L25.6531 24.793ZM25.4043 11.6367C23.1435 4.54179 17.7496 -1.11749 11.5168 -1.93426L10.9971 2.03183C15.187 2.5809 19.6259 6.67772 21.5931 12.8511L25.4043 11.6367Z" fill="#748297" mask="url(#path-1-inside-1)"/>
<path d="M9.92157 15.11C10.8447 15.11 11.5931 14.3675 11.5931 13.4515C11.5931 12.5355 10.8447 11.793 9.92157 11.793C8.99839 11.793 8.25 12.5355 8.25 13.4515C8.25 14.3675 8.99839 15.11 9.92157 15.11Z" fill="#748297" stroke="white" stroke-width="0.0509588" stroke-miterlimit="10"/>
<path d="M17.3097 21.6098L12 8L20.3087 20.439L17.3097 21.6098Z" fill="#748297"/>
<path d="M60.8431 15.7935V24.6586H57.4817V16.2239C57.4817 13.9861 56.3318 12.695 54.2972 12.695C52.4396 12.695 51.2012 13.9861 51.0243 15.7074V15.7935V24.6586H47.7514V16.2239C47.7514 13.9861 46.5129 12.695 44.7438 12.695C42.6208 12.695 41.2939 14.2443 41.2939 16.2239V24.5725H38.021V9.94082H41.117V11.9204C41.9131 10.6294 43.24 9.68262 45.4514 9.68262C47.5744 9.68262 49.2551 10.6294 50.2282 12.3508C51.1127 10.8015 52.7934 9.68262 55.0933 9.68262C58.5432 9.76869 60.8431 12.1786 60.8431 15.7935Z" fill="#748297"/>
<path d="M64.0277 31.8888L67.7429 23.5402L61.7278 10.0273H65.443L69.5121 20.0113L73.5811 10.0273H77.2079L67.566 31.8888H64.0277Z" fill="#748297"/>
<path d="M106.576 15.7935V24.6586H103.214V16.2239C103.214 13.9861 102.065 12.695 100.03 12.695C98.1724 12.695 96.934 13.9861 96.757 15.7074V15.7935V24.6586H93.3956V16.2239C93.3956 13.9861 92.1572 12.695 90.3881 12.695C88.2651 12.695 86.9382 14.2443 86.9382 16.2239V24.5725H83.6653V9.94082H86.7613V11.9204C87.5574 10.6294 88.8843 9.68262 91.0957 9.68262C93.2187 9.68262 94.8994 10.6294 95.8725 12.3508C96.757 10.8015 98.4377 9.68262 100.738 9.68262C104.276 9.76869 106.576 12.1786 106.576 15.7935Z" fill="#748297"/>
<path d="M113.387 4.94987C113.387 6.06877 112.414 6.92946 111.264 6.92946C110.114 6.92946 109.229 6.06877 109.229 4.94987C109.229 3.83098 110.203 2.97029 111.264 2.97029C112.502 2.88422 113.387 3.83098 113.387 4.94987ZM109.672 24.6596V10.0279H112.945V24.6596H109.672Z" fill="#748297"/>
<path d="M129.663 15.7935V24.6586H126.302V16.2239C126.302 13.9861 124.975 12.695 123.029 12.695C120.906 12.695 119.579 14.2443 119.579 16.2239V24.5725H116.306V9.94082H119.402V11.9204C120.198 10.6294 121.614 9.68262 123.825 9.68262C127.186 9.76869 129.663 12.0065 129.663 15.7935Z" fill="#748297"/>
<path d="M144.082 24.6589V22.5932C143.286 23.9703 141.428 24.9171 139.128 24.9171C134.971 24.9171 131.875 21.9908 131.875 17.343C131.875 12.6953 134.971 9.76898 139.128 9.76898C141.428 9.76898 143.109 10.6297 143.905 11.8346V2.45312L147.178 2.45312V24.6589H144.082ZM135.236 17.343C135.236 20.4415 137.094 22.1629 139.659 22.1629C142.136 22.1629 143.905 20.6137 143.905 17.6873V16.9127C143.905 13.9864 142.136 12.4371 139.659 12.4371C137.094 12.4371 135.236 14.2446 135.236 17.343Z" fill="#748297"/>
</svg>
