<svg xmlns="http://www.w3.org/2000/svg" viewBox="0 0 16 16"><path fill="#000000" fill-rule="evenodd" d="M2.33333333,14 L5,14 C5.18409492,14 5.33333333,13.8507616 5.33333333,13.6666667 L5.33333333,7.33333333 L11.2340228,13.8896549 C11.2972369,13.9598929 11.387292,14 11.4817875,14 L13.6666667,14 C13.8507616,14 14,13.8507616 14,13.6666667 L14,2.33333333 C14,2.14923842 13.8507616,2 13.6666667,2 L11,2 C10.8159051,2 10.6666667,2.14923842 10.6666667,2.33333333 L10.6666667,8.66666667 L4.76597725,2.11034509 C4.70276309,2.04010714 4.61270803,2 4.51821253,2 L2.33333333,2 C2.14923842,2 2,2.14923842 2,2.33333333 L2,13.6666667 C2,13.8507616 2.14923842,14 2.33333333,14 Z"/></svg>