<svg xmlns="http://www.w3.org/2000/svg" xmlns:xlink="http://www.w3.org/1999/xlink" width="50" height="50" version="1.1" viewBox="0 0 50 50"><path id="Combined-Shape" d="M38.125,0.607845411 C39.5,0.745345411 40.9875,0.945345411 41.4375,1.05784541 C44.475,1.82034541 47.2125,4.19534541 48.3875,7.08284541 C48.85,8.24534541 49.05,9.13284541 49.2375,11.0953454 C50.1625,20.2328454 50.1625,29.7328454 49.2375,38.8703454 C48.9,42.2453454 48.2125,43.9703454 46.45,45.8828454 C45.0875,47.3578454 43.3,48.4453454 41.4375,48.9078454 C40.575,49.1203454 36.9,49.5078454 33.625,49.7328454 C31.6625,49.8703454 21.6,49.9953454 19.875,49.9078454 C14.1375,49.6203454 9.7375,49.2453454 8.5125,48.9203454 C6.525,48.3953454 5.2375,47.6578454 3.75,46.1703454 C1.6,44.0203454 0.9875,42.4828454 0.5625,38.1703454 C0.114453125,33.5930017 0.00660400391,31.2797326 0.000300979614,25.548356 L-1.77635684e-14,24.9828454 C-1.77635684e-14,18.8328454 0.1,16.5203454 0.5625,11.7953454 C0.9875,7.48284541 1.6,5.94534541 3.75,3.79534541 C5.65,1.89534541 7.4625,1.05784541 10.375,0.745345411 C18.9,-0.204654589 29.325,-0.242154589 38.125,0.607845411 Z M27.0273793,8.0123956 C23.6020766,8.11881948 20.2705847,9.72542594 18.1534771,12.2500975 C17.4863116,13.0365124 16.9386986,13.8908748 16.4990254,14.7714642 C15.887831,14.145716 15.3940363,13.5282453 15.0249183,12.9562851 C13.9650456,11.3440694 13.6451978,10.2066984 13.2951815,10.2599709 C13.1403666,10.2807402 13.0412196,10.5848215 13.0030768,11.1790366 C12.9805185,11.7678245 13.0777857,12.642168 13.4352305,13.7208089 C13.7860654,14.8011174 14.4583854,16.0518273 15.4884837,17.3058099 C15.5019155,17.3220009 15.5170756,17.3380099 15.5306287,17.3541706 C15.2402219,18.4490025 15.0765535,19.5364969 15.0067261,20.6247493 C14.8458775,23.4728767 15.5623436,26.2056661 16.7214543,28.3638878 C17.8669816,30.5473966 19.3518828,32.2394444 20.8075553,33.5830837 C22.265138,34.9365469 23.7281479,35.9375378 25.0413155,36.7366871 C25.3028575,36.8942915 25.5551821,37.036099 25.8062031,37.176148 C24.3183002,37.2055586 22.9636242,37.2827841 21.8136096,37.4066422 C19.3084945,37.6764616 17.7414559,38.1557025 17.7063451,38.7804198 C17.6712041,39.4051068 19.1746005,40.0570213 21.6336896,40.606029 C22.8632341,40.8805178 24.3317017,41.1292949 25.9662027,41.3360484 C26.3753131,41.3839239 26.7942776,41.4329214 27.2220955,41.48298 C27.4363379,41.5051441 27.6527635,41.5274901 27.8712508,41.5500786 C28.2651101,41.5806111 28.6626988,41.6114164 29.0637744,41.6424946 C30.8366264,41.7724166 32.7066547,41.8934549 34.6006966,42 C34.0168509,40.1981618 33.4201495,38.4194883 32.8423982,36.7390825 C32.7098081,36.3588976 32.57837,35.9820176 32.4481751,35.608685 C32.3705251,35.4032051 32.2936331,35.1996656 32.217499,34.9981879 C32.0598643,34.5973549 31.9054436,34.2047994 31.7546916,33.8214915 C31.1373421,32.2939601 30.5217815,30.9377388 29.942393,29.8190752 C28.7835855,27.5817481 27.7693143,26.2946862 27.1742805,26.48822 C26.5792771,26.6817235 26.5161201,28.3191656 26.8950618,30.8101211 C27.0845327,32.0556131 27.3845207,33.5144692 27.7838074,35.1129195 C27.8476011,35.3585737 27.9140629,35.6143246 27.9797061,35.8670737 C26.5324626,34.7355241 24.7929931,33.2730295 23.0985491,31.3426346 C21.9597832,30.0345911 20.8643753,28.4959929 20.1069768,26.7331768 C19.7176655,25.8565594 19.433535,24.9202718 19.2734747,23.9469935 C19.1179624,22.9742308 19.0449817,21.9641438 19.1711744,20.9299826 C19.1861526,20.797635 19.2086805,20.663074 19.2276002,20.5294529 C19.3768362,20.6245067 19.5254658,20.7198637 19.6799169,20.8122796 C21.4318784,21.8364351 23.5153911,22.6894028 25.9186001,23.1266504 C27.1220995,23.3354655 28.4090705,23.4347945 29.7809076,23.322822 C31.1438004,23.2033301 32.633007,22.8895162 34.0792803,21.9907346 C34.8056915,21.5710728 35.4762529,20.9273448 36.0377829,20.1950211 C36.2872575,19.803739 36.5613823,19.4137001 36.7245959,18.9765738 C36.8123123,18.7616946 36.9163408,18.5452994 36.9810745,18.3257812 L37.1528384,17.6604045 C37.2158741,17.4351558 37.2456788,17.2149402 37.2673578,16.9944518 L37.3357904,16.3278926 C37.3195085,15.8666315 37.3493739,15.4057323 37.2506816,14.9356784 C37.1312201,13.9943576 36.7591003,13.0663171 36.2607879,12.2547062 C35.2403315,10.6084409 33.6782654,9.52604029 32.0791177,8.86415048 C30.4615051,8.21320622 28.7443815,7.93583709 27.0273793,8.0123956 Z M30.3887972,13.0436376 C31.3339686,13.4197293 32.1026765,13.9912346 32.508482,14.6276555 C32.7096261,14.9479884 32.869171,15.2701708 32.9177136,15.6352581 C32.978445,15.8070523 32.9440619,16.0087423 32.9779902,16.1945747 L32.9517632,16.4963516 C32.9490951,16.5990157 32.9430916,16.6991937 32.9144694,16.7841206 C32.8935788,16.8736258 32.8760234,16.9636464 32.8614697,17.0550315 C32.8427924,17.1439606 32.7980095,17.2139699 32.7733592,17.2963802 C32.7350951,17.4687202 32.6231529,17.5908196 32.557722,17.7436637 C32.3551528,18.0037503 32.149976,18.2780268 31.8117846,18.4844467 C31.1899477,18.9371878 30.2851022,19.229626 29.3429628,19.3621859 C28.397185,19.4993848 27.4067758,19.5001125 26.4456257,19.4059986 C24.5162305,19.2039752 22.7132098,18.6622139 21.1676076,17.9741274 C20.7883019,17.8003927 20.4242777,17.6179865 20.0748374,17.4290916 C20.4445316,16.5988944 20.9154648,15.825972 21.5086794,15.1575614 C22.191945,14.3745729 23.0548881,13.7529786 24.0258317,13.3008742 C24.9956837,12.8479208 26.0894847,12.575979 27.209543,12.540474 C28.3280246,12.4847758 29.4368341,12.6741557 30.3887972,13.0436376 Z"/></svg>