<?xml version="1.0" encoding="utf-8"?>
<svg xmlns="http://www.w3.org/2000/svg" viewBox="0 0 500 500">
  <g transform="matrix(2.32401, 0, 0, 2.32401, -380.34021, 117.293968)" style="">
    <g>
      <path d="M367.4,29.8H353V26c0-4.3-3.5-7.8-7.8-7.8h-23.4v-8c0-5.6-4.6-10.2-10.2-10.2h-81c-5.6,0-10.2,4.6-10.2,10.2v8H197 c-4.3,0-7.8,3.5-7.8,7.8v3.8h-14.4c-3.5,0-6.3,2.8-6.3,6.3v40.1c0,3.5,2.8,6.3,6.3,6.3h14.4v4.3c0,4.3,3.5,7.8,7.8,7.8h23.4v7.6 c0,5.6,4.6,10.2,10.2,10.2h81c5.6,0,10.2-4.6,10.2-10.2v-7.6h23.4c4.3,0,7.8-3.5,7.8-7.8v-4.3h14.4c3.5,0,6.3-2.8,6.3-6.3V36.1 C373.7,32.6,370.8,29.8,367.4,29.8z M353,69.5v-31H365v31H353z M321.7,78.4V28h21.5v50.4H321.7z M231.9,90.6V12.1 c0-0.4,0.3-0.6,0.6-0.6h77.2c0.4,0,0.6,0.3,0.6,0.6v78.5c0,0.4-0.3,0.6-0.6,0.6h-77.2C232.1,91.2,231.9,90.9,231.9,90.6z M220.4,28v50.4h-21.5V28H220.4z M189.2,38.5v31h-11.9v-31H189.2z"/>
      <path d="M251.2,76.8c2.5,1.2,5.5,2.2,9,2.9c3.5,0.7,6.9,1,10.2,1c4.9,0,9.2-0.8,12.9-2.3c3.6-1.5,6.5-3.7,8.5-6.4c2-2.8,3-6,3-9.8 c0-8.3-5.2-13.6-15.7-15.8l-9.4-2c-2.5-0.5-4.2-1.2-5.2-2c-1-0.8-1.5-1.7-1.5-2.9c0-1.7,0.8-3.1,2.4-4.1c1.6-1.1,4-1.6,7-1.6 c1.8,0,3.7,0.2,5.7,0.5c2,0.4,3.7,0.9,5.4,1.6c2.1,0.9,3.9,1,5.3,0.3c1.4-0.7,2.3-1.7,2.9-3.1c0.5-1.4,0.6-2.9,0.2-4.4 c-0.4-1.5-1.5-2.7-3.1-3.5c-2.1-1.2-4.6-2.2-7.5-2.8c-2.9-0.6-5.8-0.9-8.6-0.9c-4.8,0-9.1,0.8-12.7,2.3c-3.6,1.5-6.5,3.7-8.5,6.6 c-2,2.8-3.1,6.1-3.1,9.9c0,8.6,5.2,14,15.5,16.2l9.5,2c2.6,0.5,4.3,1.2,5.3,2c1,0.8,1.5,1.8,1.5,3c0,1.4-0.7,2.6-2.2,3.5 c-1.4,0.9-3.9,1.4-7.5,1.4c-2.3,0-4.7-0.3-7.3-0.8c-2.6-0.5-4.9-1.3-7-2.3c-1.6-0.7-3-0.9-4.2-0.5c-1.2,0.4-2.3,1-3,2 c-0.8,1-1.2,2.1-1.4,3.4c-0.2,1.3,0.1,2.5,0.7,3.7C248.7,75.1,249.7,76.1,251.2,76.8z"/>
    </g>
  </g>
</svg>