<?xml version="1.0" encoding="utf-8"?>
<!-- Generator: Adobe Illustrator 27.2.0, SVG Export Plug-In . SVG Version: 6.00 Build 0)  -->
<svg version="1.1" id="Layer_1"
	xmlns="http://www.w3.org/2000/svg"
	xmlns:xlink="http://www.w3.org/1999/xlink" x="0px" y="0px" viewBox="0 0 542.2 210" style="enable-background:new 0 0 542.2 210;" xml:space="preserve">
	<style type="text/css">
	.st0{fill:#FFFFFF;}
	.st1{fill:#676767;}
	.st2{fill:#E8E8E8;}
	.st3{fill:#D3D4D4;}
	.st4{fill:#BFC0C0;}
	.st5{fill:#0F0F0F;}
	.st6{fill:#AAABAC;}
	.st7{fill:#B2E34F;}
	.st8{fill:#7CDE2B;}
	.st9{fill:#45C21E;}
	.st10{fill:#1B9F19;}
	.st11{fill:#137C28;}
	.st12{fill:#0E582D;}
	.st13{fill:#F3F3F3;}
	.st14{opacity:0.18;}
	.st15{fill:#FE7171;}
	.st16{fill:#2CDDD7;}
	.st17{fill:#2CAEDD;}
	.st18{fill:#2CC8DD;}
	.st19{fill:#D1D1D1;}
	.st20{fill:#D1D1D1;stroke:#231F20;stroke-width:6.7195;stroke-miterlimit:10;}
	.st21{fill:#FFFFFF;stroke:#231F20;stroke-width:6.7195;stroke-miterlimit:10;}
	.st22{fill:#122349;}
	.st23{fill:#252593;}
	.st24{fill:#6E43D0;}
	.st25{fill:#C08DE2;}
	.st26{fill:#F2D6F5;}
	.st27{fill:none;stroke:#231F20;stroke-width:6.7195;stroke-linecap:round;stroke-miterlimit:10;}
	.st28{fill:#ACD4F6;stroke:#231F20;stroke-width:6.7195;stroke-linecap:round;stroke-linejoin:round;stroke-miterlimit:10;}
	.st29{fill:none;stroke:#231F20;stroke-width:6.7195;stroke-linecap:round;stroke-linejoin:round;stroke-miterlimit:10;}
	.st30{fill:#757575;}
	.st31{fill:#474747;}
	.st32{fill:none;stroke:#231F20;stroke-width:6.7195;stroke-miterlimit:10;}
	.st33{fill:#A3A3A3;stroke:#231F20;stroke-width:6.7195;stroke-miterlimit:10;}
	.st34{fill:#231F20;}
	</style>
	<g>
		<g>
			<path d="M367.4,29.8H353V26c0-4.3-3.5-7.8-7.8-7.8h-23.4v-8c0-5.6-4.6-10.2-10.2-10.2h-81c-5.6,0-10.2,4.6-10.2,10.2v8H197
			c-4.3,0-7.8,3.5-7.8,7.8v3.8h-14.4c-3.5,0-6.3,2.8-6.3,6.3v40.1c0,3.5,2.8,6.3,6.3,6.3h14.4v4.3c0,4.3,3.5,7.8,7.8,7.8h23.4v7.6
			c0,5.6,4.6,10.2,10.2,10.2h81c5.6,0,10.2-4.6,10.2-10.2v-7.6h23.4c4.3,0,7.8-3.5,7.8-7.8v-4.3h14.4c3.5,0,6.3-2.8,6.3-6.3V36.1
			C373.7,32.6,370.8,29.8,367.4,29.8z M353,69.5v-31H365v31H353z M321.7,78.4V28h21.5v50.4H321.7z M231.9,90.6V12.1
			c0-0.4,0.3-0.6,0.6-0.6h77.2c0.4,0,0.6,0.3,0.6,0.6v78.5c0,0.4-0.3,0.6-0.6,0.6h-77.2C232.1,91.2,231.9,90.9,231.9,90.6z
			 M220.4,28v50.4h-21.5V28H220.4z M189.2,38.5v31h-11.9v-31H189.2z"/>
			<path d="M251.2,76.8c2.5,1.2,5.5,2.2,9,2.9c3.5,0.7,6.9,1,10.2,1c4.9,0,9.2-0.8,12.9-2.3c3.6-1.5,6.5-3.7,8.5-6.4c2-2.8,3-6,3-9.8
			c0-8.3-5.2-13.6-15.7-15.8l-9.4-2c-2.5-0.5-4.2-1.2-5.2-2c-1-0.8-1.5-1.7-1.5-2.9c0-1.7,0.8-3.1,2.4-4.1c1.6-1.1,4-1.6,7-1.6
			c1.8,0,3.7,0.2,5.7,0.5c2,0.4,3.7,0.9,5.4,1.6c2.1,0.9,3.9,1,5.3,0.3c1.4-0.7,2.3-1.7,2.9-3.1c0.5-1.4,0.6-2.9,0.2-4.4
			c-0.4-1.5-1.5-2.7-3.1-3.5c-2.1-1.2-4.6-2.2-7.5-2.8c-2.9-0.6-5.8-0.9-8.6-0.9c-4.8,0-9.1,0.8-12.7,2.3c-3.6,1.5-6.5,3.7-8.5,6.6
			c-2,2.8-3.1,6.1-3.1,9.9c0,8.6,5.2,14,15.5,16.2l9.5,2c2.6,0.5,4.3,1.2,5.3,2c1,0.8,1.5,1.8,1.5,3c0,1.4-0.7,2.6-2.2,3.5
			c-1.4,0.9-3.9,1.4-7.5,1.4c-2.3,0-4.7-0.3-7.3-0.8c-2.6-0.5-4.9-1.3-7-2.3c-1.6-0.7-3-0.9-4.2-0.5c-1.2,0.4-2.3,1-3,2
			c-0.8,1-1.2,2.1-1.4,3.4c-0.2,1.3,0.1,2.5,0.7,3.7C248.7,75.1,249.7,76.1,251.2,76.8z"/>
		</g>
	</g>
</svg>
